<svg xmlns="http://www.w3.org/2000/svg" xmlns:xlink="http://www.w3.org/1999/xlink" width="500" zoomAndPan="magnify" viewBox="0 0 375 374.999991" height="500" preserveAspectRatio="xMidYMid meet" version="1.0"><defs><clipPath id="1ebe7f4a5c"><path d="M 12.601562 13.234375 L 362.101562 13.234375 L 362.101562 361.984375 L 12.601562 361.984375 Z M 12.601562 13.234375 " clip-rule="nonzero"/></clipPath></defs><g clip-path="url(#1ebe7f4a5c)"><path fill="#ffffff" d="M 362.140625 188.269531 C 362.140625 91.59375 283.898438 13.234375 187.382812 13.234375 C 90.863281 13.234375 12.605469 91.59375 12.605469 188.269531 C 12.605469 270.351562 69.027344 339.238281 145.152344 358.152344 L 145.152344 241.761719 L 109.105469 241.761719 L 109.105469 188.269531 L 145.152344 188.269531 L 145.152344 165.226562 C 145.152344 105.65625 172.070312 78.039062 230.472656 78.039062 C 241.546875 78.039062 260.652344 80.207031 268.464844 82.390625 L 268.464844 130.867188 C 264.339844 130.429688 257.167969 130.207031 248.277344 130.207031 C 219.617188 130.207031 208.542969 141.078125 208.542969 169.339844 L 208.542969 188.253906 L 265.625 188.253906 L 255.820312 241.746094 L 208.542969 241.746094 L 208.542969 362 C 295.082031 351.539062 362.140625 277.734375 362.140625 188.253906 Z M 362.140625 188.269531 " fill-opacity="1" fill-rule="nonzero"/></g></svg>