<svg xmlns="http://www.w3.org/2000/svg" xmlns:xlink="http://www.w3.org/1999/xlink" width="500" zoomAndPan="magnify" viewBox="0 0 375 374.999991" height="500" preserveAspectRatio="xMidYMid meet" version="1.0"><defs><clipPath id="65d2f2cbc6"><path d="M 3.566406 3.566406 L 375 3.566406 L 375 375 L 3.566406 375 Z M 3.566406 3.566406 " clip-rule="nonzero"/></clipPath><clipPath id="f192d1800a"><path d="M 189.28125 3.566406 C 86.714844 3.566406 3.566406 86.714844 3.566406 189.28125 C 3.566406 291.851562 86.714844 375 189.28125 375 C 291.851562 375 375 291.851562 375 189.28125 C 375 86.714844 291.851562 3.566406 189.28125 3.566406 Z M 189.28125 3.566406 " clip-rule="nonzero"/></clipPath><clipPath id="73af9b4517"><path d="M 0.566406 0.566406 L 372 0.566406 L 372 372 L 0.566406 372 Z M 0.566406 0.566406 " clip-rule="nonzero"/></clipPath><clipPath id="bbc7cb4cde"><path d="M 186.28125 0.566406 C 83.714844 0.566406 0.566406 83.714844 0.566406 186.28125 C 0.566406 288.851562 83.714844 372 186.28125 372 C 288.851562 372 372 288.851562 372 186.28125 C 372 83.714844 288.851562 0.566406 186.28125 0.566406 Z M 186.28125 0.566406 " clip-rule="nonzero"/></clipPath><clipPath id="5df4e289ab"><rect x="0" width="372" y="0" height="372"/></clipPath><clipPath id="1c1c3f8b24"><rect x="0" width="375" y="0" height="375"/></clipPath></defs><g transform="matrix(1, 0, 0, 1, 0, 0)"><g clip-path="url(#1c1c3f8b24)"><g clip-path="url(#65d2f2cbc6)"><g clip-path="url(#f192d1800a)"><g transform="matrix(1, 0, 0, 1, 3, 3)"><g clip-path="url(#5df4e289ab)"><g clip-path="url(#73af9b4517)"><g clip-path="url(#bbc7cb4cde)"><path fill="#ffffff" d="M 0.566406 0.566406 L 372 0.566406 L 372 372 L 0.566406 372 Z M 0.566406 0.566406 " fill-opacity="1" fill-rule="nonzero"/></g></g></g></g></g></g><path fill="#1e1a12" d="M 187.496094 0 C 83.945312 0 0 83.945312 0 187.496094 C 0 291.046875 83.945312 374.988281 187.496094 374.988281 C 291.046875 374.988281 374.988281 291.046875 374.988281 187.496094 C 374.988281 83.945312 291.046875 0 187.496094 0 Z M 187.496094 360.789062 C 91.789062 360.789062 14.203125 283.203125 14.203125 187.496094 C 14.203125 91.789062 91.789062 14.203125 187.496094 14.203125 C 283.203125 14.203125 360.789062 91.789062 360.789062 187.496094 C 360.789062 283.203125 283.203125 360.789062 187.496094 360.789062 Z M 187.496094 360.789062 " fill-opacity="1" fill-rule="nonzero"/><path fill="#1e1a12" d="M 165.488281 279.398438 C 160.785156 279.851562 157.03125 280.367188 153.257812 280.546875 C 131.863281 281.558594 116.027344 273.125 106.421875 253.457031 C 103.363281 247.195312 99.445312 241.28125 95.367188 235.609375 C 92.917969 232.199219 89.488281 229.464844 86.316406 226.625 L 86.28125 226.589844 C 84.320312 224.863281 85.183594 221.640625 87.757812 221.207031 C 90.78125 220.699219 93.597656 221.246094 96.34375 221.945312 C 104.949219 224.132812 110.46875 230.230469 114.867188 237.523438 C 124.816406 254.019531 141.949219 260.898438 160.476562 255.984375 C 163.621094 255.152344 165.007812 253.796875 165.691406 250.367188 C 166.492188 246.367188 167.578125 242.421875 168.742188 238.402344 C 168.914062 237.808594 169.027344 237.207031 169.074219 236.59375 C 169.125 235.976562 169.109375 235.363281 169.035156 234.753906 C 168.960938 234.140625 168.824219 233.542969 168.625 232.957031 C 168.429688 232.375 168.175781 231.816406 167.863281 231.285156 C 167.550781 230.75 167.191406 230.253906 166.78125 229.796875 C 166.367188 229.335938 165.914062 228.925781 165.417969 228.558594 C 164.921875 228.191406 164.394531 227.878906 163.835938 227.617188 C 163.277344 227.359375 162.699219 227.160156 162.097656 227.015625 L 161.992188 226.992188 C 142.769531 222.394531 126.164062 213.828125 115.464844 196.261719 C 109.742188 186.867188 106.914062 176.519531 107.058594 165.742188 C 107.222656 153.511719 108.304688 141.253906 109.710938 129.089844 C 110.699219 120.527344 114.664062 112.945312 120.824219 106.785156 C 122.96875 104.640625 123.152344 102.839844 122.113281 100.0625 C 117.875 88.683594 118.613281 77.28125 122.375 65.875 C 123.4375 62.660156 124.945312 62.199219 128.023438 63.167969 C 137.546875 66.164062 144.652344 72.363281 150.898438 79.785156 L 150.964844 79.863281 C 151.746094 80.804688 152.652344 81.613281 153.679688 82.28125 C 154.707031 82.953125 155.808594 83.460938 156.988281 83.800781 C 158.164062 84.140625 159.367188 84.300781 160.59375 84.28125 C 161.820312 84.261719 163.015625 84.0625 164.183594 83.683594 C 183.949219 77.199219 213.9375 77.113281 232.578125 83.53125 C 233.75 83.925781 234.953125 84.144531 236.191406 84.175781 C 237.425781 84.207031 238.640625 84.058594 239.832031 83.722656 C 241.023438 83.386719 242.136719 82.882812 243.175781 82.210938 C 244.214844 81.539062 245.128906 80.726562 245.921875 79.777344 L 245.980469 79.707031 C 252.238281 72.285156 259.375 66.136719 268.894531 63.128906 C 272.085938 62.121094 273.445312 62.886719 274.457031 65.992188 C 278.171875 77.402344 278.804688 88.738281 274.789062 100.234375 C 274.222656 101.851562 274.246094 104.667969 275.25 105.691406 C 283.785156 114.347656 287.523438 125.09375 288.472656 136.738281 C 289.386719 147.988281 290.378906 159.429688 289.332031 170.601562 C 286.617188 199.652344 268.953125 216.570312 242.089844 224.984375 C 239.792969 225.703125 237.457031 226.304688 235.074219 226.871094 C 234.453125 227.015625 233.855469 227.226562 233.28125 227.496094 C 232.703125 227.769531 232.164062 228.097656 231.65625 228.484375 C 231.148438 228.871094 230.6875 229.304688 230.273438 229.785156 C 229.855469 230.269531 229.496094 230.789062 229.1875 231.347656 C 228.882812 231.90625 228.636719 232.488281 228.453125 233.097656 C 228.269531 233.710938 228.148438 234.332031 228.097656 234.964844 C 228.042969 235.601562 228.054688 236.234375 228.136719 236.867188 C 228.214844 237.496094 228.359375 238.113281 228.570312 238.714844 C 232.226562 249.320312 231.667969 260.648438 231.613281 271.902344 C 231.597656 274.488281 231.589844 277.078125 231.585938 279.667969 C 231.582031 280.738281 231.527344 281.804688 231.421875 282.867188 C 231.3125 283.929688 231.15625 284.984375 230.945312 286.035156 C 230.734375 287.082031 230.472656 288.117188 230.160156 289.140625 C 229.847656 290.160156 229.488281 291.164062 229.078125 292.152344 C 228.667969 293.140625 228.207031 294.105469 227.703125 295.046875 C 227.199219 295.988281 226.648438 296.902344 226.054688 297.789062 C 225.457031 298.679688 224.820312 299.535156 224.140625 300.359375 C 223.460938 301.183594 222.746094 301.976562 221.988281 302.730469 C 221.230469 303.484375 220.441406 304.203125 219.613281 304.878906 C 218.785156 305.554688 217.929688 306.191406 217.039062 306.785156 C 216.148438 307.378906 215.234375 307.925781 214.289062 308.429688 C 213.347656 308.929688 212.382812 309.386719 211.394531 309.796875 C 210.40625 310.203125 209.402344 310.5625 208.378906 310.875 C 207.355469 311.183594 206.320312 311.441406 205.273438 311.648438 C 204.222656 311.859375 203.167969 312.015625 202.105469 312.121094 C 201.039062 312.222656 199.972656 312.277344 198.90625 312.277344 L 198.167969 312.277344 C 197.097656 312.277344 196.03125 312.222656 194.964844 312.117188 C 193.898438 312.011719 192.84375 311.855469 191.792969 311.648438 C 190.742188 311.4375 189.707031 311.179688 188.683594 310.867188 C 187.65625 310.558594 186.652344 310.199219 185.664062 309.789062 C 184.671875 309.378906 183.707031 308.921875 182.761719 308.417969 C 181.820312 307.914062 180.902344 307.363281 180.011719 306.769531 C 179.121094 306.171875 178.265625 305.535156 177.4375 304.859375 C 176.609375 304.179688 175.816406 303.460938 175.058594 302.703125 C 174.304688 301.945312 173.585938 301.15625 172.90625 300.328125 C 172.226562 299.5 171.589844 298.640625 170.996094 297.75 C 170.402344 296.863281 169.851562 295.945312 169.347656 295 C 168.84375 294.058594 168.386719 293.089844 167.976562 292.101562 C 167.566406 291.113281 167.207031 290.105469 166.894531 289.082031 C 166.585938 288.058594 166.324219 287.019531 166.117188 285.972656 C 165.90625 284.921875 165.75 283.863281 165.644531 282.796875 C 165.539062 281.734375 165.488281 280.664062 165.488281 279.59375 Z M 165.488281 279.398438 " fill-opacity="1" fill-rule="nonzero"/></g></g></svg>