<svg xmlns="http://www.w3.org/2000/svg" xmlns:xlink="http://www.w3.org/1999/xlink" width="500" zoomAndPan="magnify" viewBox="0 0 375 374.999991" height="500" preserveAspectRatio="xMidYMid meet" version="1.0"><defs><clipPath id="9e8962a5f8"><path d="M 0.800781 0.601562 L 350.601562 0.601562 L 350.601562 350.398438 L 0.800781 350.398438 Z M 0.800781 0.601562 " clip-rule="nonzero"/></clipPath><clipPath id="55fc731711"><path d="M 175.699219 0.601562 C 79.105469 0.601562 0.800781 78.90625 0.800781 175.5 C 0.800781 272.09375 79.105469 350.398438 175.699219 350.398438 C 272.292969 350.398438 350.601562 272.09375 350.601562 175.5 C 350.601562 78.90625 272.292969 0.601562 175.699219 0.601562 Z M 175.699219 0.601562 " clip-rule="nonzero"/></clipPath><clipPath id="f427f135a2"><path d="M 0.800781 0.601562 L 350.601562 0.601562 L 350.601562 350.398438 L 0.800781 350.398438 Z M 0.800781 0.601562 " clip-rule="nonzero"/></clipPath><clipPath id="8a67d1105a"><path d="M 175.699219 0.601562 C 79.105469 0.601562 0.800781 78.90625 0.800781 175.5 C 0.800781 272.09375 79.105469 350.398438 175.699219 350.398438 C 272.292969 350.398438 350.601562 272.09375 350.601562 175.5 C 350.601562 78.90625 272.292969 0.601562 175.699219 0.601562 Z M 175.699219 0.601562 " clip-rule="nonzero"/></clipPath><clipPath id="8ccbcb2088"><rect x="0" width="351" y="0" height="351"/></clipPath><clipPath id="9286727703"><path d="M 68.03125 67.832031 L 283.507812 67.832031 L 283.507812 283.308594 L 68.03125 283.308594 Z M 68.03125 67.832031 " clip-rule="nonzero"/></clipPath><clipPath id="27342f78cb"><rect x="0" width="351" y="0" height="351"/></clipPath></defs><g transform="matrix(1, 0, 0, 1, 13, 12)"><g clip-path="url(#27342f78cb)"><g clip-path="url(#9e8962a5f8)"><g clip-path="url(#55fc731711)"><g transform="matrix(1, 0, 0, 1, -0.000000000000001776, 0)"><g clip-path="url(#8ccbcb2088)"><g clip-path="url(#f427f135a2)"><g clip-path="url(#8a67d1105a)"><path fill="#ffffff" d="M 0.800781 0.601562 L 350.601562 0.601562 L 350.601562 350.398438 L 0.800781 350.398438 Z M 0.800781 0.601562 " fill-opacity="1" fill-rule="nonzero"/></g></g></g></g></g></g><g clip-path="url(#9286727703)"><path fill="#1e1a12" d="M 131.078125 68.570312 C 119.628906 69.109375 111.808594 70.945312 104.972656 73.621094 C 97.890625 76.378906 91.898438 80.074219 85.933594 86.066406 C 79.957031 92.0625 76.285156 98.066406 73.558594 105.15625 C 70.910156 112.011719 69.117188 119.832031 68.609375 131.292969 C 68.101562 142.765625 67.988281 146.429688 68.039062 175.660156 C 68.089844 204.882812 68.222656 208.554688 68.769531 220.035156 C 69.320312 231.488281 71.144531 239.296875 73.820312 246.144531 C 76.582031 253.222656 80.273438 259.207031 86.265625 265.179688 C 92.261719 271.15625 98.265625 274.816406 105.355469 277.554688 C 112.203125 280.203125 120.03125 282.007812 131.484375 282.503906 C 142.964844 283.011719 146.628906 283.125 175.851562 283.0625 C 205.082031 283.011719 208.742188 282.882812 220.226562 282.332031 C 231.675781 281.785156 239.488281 279.949219 246.332031 277.28125 C 253.414062 274.511719 259.40625 270.832031 265.371094 264.835938 C 271.335938 258.84375 275.007812 252.835938 277.746094 245.746094 C 280.394531 238.902344 282.199219 231.070312 282.695312 219.628906 C 283.191406 208.148438 283.3125 204.476562 283.261719 175.253906 C 283.210938 146.03125 283.070312 142.371094 282.535156 130.890625 C 281.984375 119.425781 280.160156 111.617188 277.480469 104.769531 C 274.714844 97.691406 271.03125 91.707031 265.035156 85.734375 C 259.042969 79.769531 253.039062 76.085938 245.949219 73.359375 C 239.101562 70.710938 231.269531 68.90625 219.820312 68.410156 C 208.335938 67.902344 204.664062 67.789062 175.445312 67.839844 C 146.222656 67.890625 142.5625 68.023438 131.078125 68.570312 M 132.335938 263.121094 C 121.847656 262.667969 116.148438 260.921875 112.34375 259.460938 C 107.3125 257.511719 103.734375 255.179688 99.949219 251.4375 C 96.175781 247.675781 93.84375 244.09375 91.875 239.082031 C 90.40625 235.289062 88.628906 229.601562 88.132812 219.101562 C 87.597656 207.761719 87.472656 204.355469 87.421875 175.621094 C 87.371094 146.894531 87.472656 143.488281 87.972656 132.136719 C 88.417969 121.648438 90.171875 115.949219 91.632812 112.15625 C 93.582031 107.125 95.902344 103.542969 99.65625 99.761719 C 103.417969 95.988281 107 93.652344 112.019531 91.6875 C 115.8125 90.207031 121.503906 88.441406 131.992188 87.945312 C 143.339844 87.40625 146.738281 87.292969 175.472656 87.234375 C 204.210938 87.171875 207.617188 87.273438 218.96875 87.78125 C 229.457031 88.238281 235.15625 89.972656 238.949219 91.441406 C 243.980469 93.390625 247.570312 95.703125 251.34375 99.464844 C 255.117188 103.230469 257.460938 106.800781 259.417969 111.832031 C 260.898438 115.613281 262.664062 121.3125 263.160156 131.792969 C 263.699219 143.140625 263.820312 146.550781 263.871094 175.273438 C 263.921875 204.007812 263.820312 207.417969 263.324219 218.757812 C 262.867188 229.246094 261.121094 234.957031 259.660156 238.75 C 257.714844 243.769531 255.390625 247.359375 251.628906 251.132812 C 247.863281 254.898438 244.292969 257.238281 239.261719 259.207031 C 235.480469 260.6875 229.78125 262.453125 219.300781 262.949219 C 207.953125 263.488281 204.554688 263.609375 175.808594 263.660156 C 147.085938 263.710938 143.675781 263.609375 132.328125 263.113281 M 220.074219 117.925781 C 220.082031 125.058594 225.886719 130.828125 233.003906 130.808594 C 240.136719 130.796875 245.90625 125.007812 245.898438 117.875 C 245.886719 110.746094 240.085938 104.972656 232.953125 104.984375 C 225.824219 104.992188 220.054688 110.796875 220.0625 117.917969 M 120.386719 175.558594 C 120.449219 206.078125 145.238281 230.765625 175.75 230.707031 C 206.269531 230.644531 230.964844 205.867188 230.90625 175.34375 C 230.84375 144.835938 206.054688 120.136719 175.535156 120.1875 C 145.027344 120.25 120.328125 145.039062 120.386719 175.558594 M 139.769531 175.519531 C 139.742188 155.707031 155.765625 139.613281 175.574219 139.582031 C 195.386719 139.539062 211.480469 155.566406 211.523438 175.386719 C 211.5625 195.195312 195.527344 211.292969 175.71875 211.324219 C 155.910156 211.363281 139.8125 195.328125 139.78125 175.519531 " fill-opacity="1" fill-rule="nonzero"/></g></g></g></svg>