<svg xmlns="http://www.w3.org/2000/svg" xmlns:xlink="http://www.w3.org/1999/xlink" width="500" zoomAndPan="magnify" viewBox="0 0 375 374.999991" height="500" preserveAspectRatio="xMidYMid meet" version="1.0"><defs><clipPath id="40269d2278"><path d="M 0 0 L 374.878906 0 L 374.878906 199.964844 L 0 199.964844 Z M 0 0 " clip-rule="nonzero"/></clipPath><clipPath id="91dd9604d3"><path d="M 228.4375 15.21875 L 370.117188 15.21875 L 370.117188 266.398438 L 228.4375 266.398438 Z M 228.4375 15.21875 " clip-rule="nonzero"/></clipPath><clipPath id="d96021520d"><path d="M 38 0.21875 L 141 0.21875 L 141 58 L 38 58 Z M 38 0.21875 " clip-rule="nonzero"/></clipPath><clipPath id="093c40ef51"><path d="M 0.578125 0.21875 L 102 0.21875 L 102 117 L 0.578125 117 Z M 0.578125 0.21875 " clip-rule="nonzero"/></clipPath><clipPath id="4ad24648bb"><path d="M 127 0.21875 L 129 0.21875 L 129 115 L 127 115 Z M 127 0.21875 " clip-rule="nonzero"/></clipPath><clipPath id="77ac3e45bd"><path d="M 88 0.21875 L 90 0.21875 L 90 213 L 88 213 Z M 88 0.21875 " clip-rule="nonzero"/></clipPath><clipPath id="004ada0d93"><path d="M 113 101 L 142.117188 101 L 142.117188 140 L 113 140 Z M 113 101 " clip-rule="nonzero"/></clipPath><clipPath id="e32a94396a"><rect x="0" width="143" y="0" height="252"/></clipPath><clipPath id="d5fa0047c8"><rect x="0" width="375" y="0" height="267"/></clipPath></defs><g transform="matrix(1, 0, 0, 1, 0, 0)"><g clip-path="url(#d5fa0047c8)"><g clip-path="url(#40269d2278)"><path fill="#a5a8a6" d="M 123.5625 32.679688 C 112.582031 33.605469 116.5625 33.6875 124.496094 34.429688 C 156.75 37.425781 191.554688 37.738281 223.765625 34.09375 C 233.699219 32.96875 239.253906 26.535156 244.703125 18.886719 C 248.269531 13.828125 252.175781 7.011719 252.773438 0.769531 C 252.894531 -1.316406 250.832031 -0.453125 248.804688 -0.390625 C 236 -0.046875 223.464844 -0.253906 210.675781 -0.429688 C 206.769531 -0.484375 206.464844 1.042969 203.261719 3.65625 C 182.285156 20.78125 150.238281 30.265625 123.5625 32.679688 M 103.351562 68.457031 C 99.46875 73.835938 97.75 74.707031 105.34375 74.457031 C 125.808594 73.777344 144.117188 72.835938 164.488281 70.183594 C 182.570312 67.792969 201.054688 64.589844 218.789062 60.320312 C 224.980469 58.828125 224.8125 56.8125 226.722656 50.875 C 227.625 48.054688 231.703125 36.148438 227.867188 34.542969 L 227.1875 34.375 C 224.972656 34.140625 215.097656 35.578125 211.828125 35.851562 C 180.339844 38.503906 149.65625 37.777344 118.265625 34.308594 C 109.195312 33.300781 112.773438 33.820312 112.519531 42.988281 C 112.261719 52.242188 108.628906 60.984375 103.351562 68.457031 Z M 123.746094 74.554688 C 158.222656 75.648438 197.179688 78.253906 230.519531 86.828125 C 240.890625 89.273438 242.480469 85.765625 250.707031 80.226562 C 254.46875 77.695312 260.695312 74.152344 263.738281 71.261719 C 258.832031 66.601562 233.027344 60.878906 225.699219 60.050781 C 222.167969 59.65625 209.628906 62.949219 205.625 63.835938 C 203.84375 64.230469 202.0625 64.628906 200.273438 65.003906 C 174.859375 70.085938 149.636719 73.210938 123.746094 74.554688 Z M 236.898438 97.96875 C 235.257812 109.5625 232.707031 124.003906 229.726562 135.265625 C 227.976562 141.882812 227.105469 141.648438 231.636719 135.59375 C 242.394531 121.289062 253.101562 108.507812 265.546875 95.628906 C 272.808594 88.117188 271.601562 83.304688 266.847656 74.65625 C 264.59375 70.558594 264.753906 71.75 260.152344 74.785156 C 256.460938 77.222656 240.835938 86.949219 238.910156 89.296875 C 237.160156 91.433594 237.246094 95.226562 236.898438 97.96875 Z M 228.34375 141.523438 C 246.652344 129.03125 280.34375 111.019531 302.59375 118.378906 C 303.769531 118.769531 309.195312 120.871094 310.191406 120.488281 C 311.902344 119.824219 314.707031 108.964844 315.476562 106.710938 C 317.808594 99.980469 320.4375 93.765625 323.140625 87.210938 C 324.679688 83.480469 322.644531 83.128906 318.921875 82.671875 C 306.949219 81.203125 286.761719 85.191406 275.054688 88.746094 C 269.566406 90.433594 264.539062 97.410156 260.628906 101.75 C 249.394531 114.214844 238.855469 126.503906 229.136719 140.210938 L 228.171875 141.578125 Z M 357.476562 140.121094 C 356.839844 133.59375 355.527344 127.03125 354.855469 120.328125 C 353.800781 109.890625 353.242188 99.375 353.699219 88.890625 C 353.851562 83.007812 352.410156 81.15625 346.425781 79.957031 C 340.410156 78.757812 326.984375 80.027344 323.9375 86.300781 C 322.78125 88.667969 321.199219 93.476562 320.199219 96.105469 C 319.0625 99.078125 311.335938 119.003906 311.976562 120.929688 C 312.382812 121.367188 317.59375 119.257812 318.679688 118.984375 C 332.011719 115.542969 343.460938 119.890625 351.558594 131.070312 C 354.011719 134.457031 355.351562 137.046875 357.421875 140.523438 Z M 321.398438 15.539062 C 319.984375 6.636719 312.902344 2.320312 304.925781 -0.277344 C 303.808594 -0.636719 304.265625 0.496094 303.976562 2.222656 C 302.371094 11.015625 299.023438 16.410156 292.238281 22.171875 C 290.0625 24.023438 292.644531 22.785156 294.1875 22.386719 C 303.25 20.042969 312.335938 17.96875 321.398438 15.539062 Z M 322.285156 15.296875 C 338.707031 10.804688 355.039062 5.683594 371.101562 0.0351562 C 372.101562 -0.316406 372.261719 -0.363281 371.09375 -0.363281 C 357.511719 -0.390625 343.917969 -0.355469 330.339844 -0.355469 C 328.214844 -0.355469 307.042969 -0.5 306.894531 -0.355469 C 307.722656 0.648438 317.882812 2.640625 321.285156 11.84375 C 321.660156 12.851562 321.804688 13.585938 322.019531 14.632812 C 322.070312 14.945312 322.027344 15.003906 322.140625 15.296875 Z M 303.359375 1.25 C 303.328125 -1.371094 300.140625 -0.445312 297.832031 -0.398438 C 283.878906 -0.15625 269.675781 -0.78125 255.730469 -0.429688 C 255.414062 -0.421875 255.0625 -0.421875 254.75 -0.375 C 252.976562 0.164062 252.253906 5.203125 251.738281 6.835938 C 248.011719 18.175781 242.898438 22.953125 234.402344 30.785156 C 230.597656 34.53125 234.25 33.144531 237.449219 32.574219 C 245.007812 31.394531 285.292969 25.269531 289.558594 23.175781 C 296.222656 19.886719 303.121094 8.632812 303.359375 1.25 Z M 288.152344 39.414062 C 293.601562 37.378906 296.304688 34.765625 293.394531 28.796875 C 290.285156 22.425781 287.683594 24.375 282.03125 25.75 C 267.609375 29.242188 252.832031 30.855469 238.152344 32.789062 C 226.453125 34.707031 230.941406 36.089844 228.523438 46.382812 C 228.082031 48.277344 224.957031 56.523438 225.660156 57.605469 C 226.835938 59.425781 240.628906 54.65625 242.90625 54.007812 C 258.359375 49.582031 273.042969 44.984375 288.152344 39.414062 Z M 281.105469 60.203125 C 283.964844 58.332031 301.539062 47.445312 302.136719 45.753906 C 302.882812 43.613281 298.804688 39.625 296.496094 38.777344 C 292.285156 37.234375 285.933594 40.796875 281.746094 42.339844 C 263.949219 48.8125 247.246094 53.464844 229.023438 58.371094 C 224.101562 59.691406 227.113281 59.777344 230.519531 60.378906 C 240.003906 62.070312 256.25 65.363281 264.289062 70.320312 C 265.457031 71.125 267.863281 68.929688 269.070312 68.128906 C 273.074219 65.484375 277.085938 62.847656 281.105469 60.203125 Z M 308.914062 52.640625 C 311.296875 50.445312 312.246094 49.253906 308.242188 47.550781 C 302.90625 45.289062 298.023438 49.941406 293.667969 52.816406 C 289.597656 55.503906 268.613281 68.824219 266.734375 70.855469 C 265.863281 71.804688 266.167969 71.445312 266.800781 73.132812 C 268.183594 76.792969 269.683594 79.683594 271.003906 83.625 C 272.53125 88.179688 274.511719 86.046875 277.4375 83.097656 C 280.679688 79.828125 283.605469 76.574219 286.984375 73.285156 C 294.171875 66.273438 301.5625 59.480469 308.914062 52.640625 Z M 297.09375 64.53125 C 294.808594 66.699219 273.121094 87.1875 274.183594 87.988281 C 274.839844 88.484375 285.949219 85.277344 287.992188 84.816406 C 299.613281 82.234375 308.195312 81.019531 320.132812 82.363281 C 325.703125 82.992188 325.832031 81.113281 328.039062 76.054688 C 328.957031 73.945312 335.925781 59.507812 336.019531 59.121094 C 336.222656 58.179688 335.046875 57.40625 334.414062 56.875 C 328.789062 52.433594 316.890625 47.277344 310.378906 52.304688 C 305.902344 55.75 301.242188 60.570312 297.09375 64.53125 Z M 354.011719 78.132812 C 354.617188 74.675781 354.601562 69.441406 355.042969 65.585938 C 355.296875 63.375 356.78125 56.699219 355.742188 54.960938 C 353.273438 50.835938 346.386719 52.699219 343.007812 54.582031 C 336.347656 58.410156 335.246094 61.925781 332.019531 68.609375 C 331.332031 70.039062 325.886719 80.972656 326.257812 81.808594 C 326.597656 82.554688 333.398438 79.890625 334.597656 79.582031 C 340.953125 77.988281 345.019531 79.285156 351.164062 80.628906 C 353.457031 81.140625 353.578125 80.269531 354.011719 78.132812 Z M 333.601562 20.246094 C 334.703125 19.851562 336.246094 19.046875 337.347656 18.519531 C 348.609375 13.15625 359.941406 7.347656 370.71875 1.035156 C 371.535156 0.554688 370.519531 1 370.25 1.089844 C 357.191406 5.644531 344.109375 9.839844 330.8125 13.652344 C 333.097656 14.835938 333.359375 17.449219 333.367188 19.734375 L 333.367188 20.035156 L 333.433594 20.226562 Z M 324.195312 25.414062 C 324.105469 25.414062 308.308594 31.984375 306.476562 32.679688 C 298.492188 35.691406 295.585938 36.28125 302.011719 43.46875 C 304.167969 45.882812 305.375 44.457031 308.066406 42.699219 C 312.589844 39.734375 316.898438 36.652344 321.5 33.679688 C 322.292969 33.167969 327.046875 30.347656 326.96875 29.433594 C 326.902344 28.5625 324.992188 25.855469 324.195312 25.414062 Z M 331.484375 32.765625 C 331.777344 32.519531 333.25 31.390625 333.257812 31.082031 C 333.265625 30.863281 332.671875 30.21875 332.480469 30.066406 C 329.621094 28.269531 326.464844 31.222656 323.960938 32.863281 C 317.832031 36.859375 311.015625 41.046875 305.09375 45.226562 C 303.839844 46.113281 307.828125 46.9375 308.828125 47.421875 C 313.5 49.683594 311.847656 50.066406 317.027344 45.363281 C 321.765625 41.0625 326.597656 36.882812 331.484375 32.765625 Z M 334.152344 30.433594 C 334.964844 29.9375 336.261719 28.738281 337.058594 28.074219 C 345.796875 20.796875 354.640625 13.722656 363.65625 6.796875 C 364.925781 5.828125 362.953125 7.203125 362.746094 7.339844 C 352.148438 14.324219 341.519531 21.277344 330.929688 28.277344 C 329.933594 28.9375 330.402344 28.546875 331.457031 28.761719 C 333.015625 29.066406 333.726562 30.457031 333.976562 30.488281 Z M 327.980469 29.242188 C 328.527344 29.113281 329.933594 28.066406 330.5 27.699219 C 331.5625 27.003906 332.625 26.300781 333.6875 25.605469 C 343.507812 19.148438 353.355469 12.714844 363.144531 6.21875 C 364.277344 5.46875 362.386719 6.585938 362.234375 6.667969 C 349.734375 13.492188 337.929688 18.910156 325.136719 24.96875 C 324.808594 25.121094 325.769531 25.933594 326.082031 26.332031 C 326.703125 27.101562 327.542969 29.164062 327.980469 29.242188 Z M 329.5 14.035156 L 329.484375 14.035156 C 326.976562 14.746094 324.480469 15.449219 322.003906 16.121094 C 321.949219 16.152344 321.894531 16.175781 321.828125 16.183594 C 321.8125 16.183594 321.789062 16.183594 321.773438 16.183594 C 311.75 18.878906 302.21875 21.027344 292.132812 23.34375 C 288.984375 24.066406 291.421875 24.488281 293.21875 28.195312 C 296.574219 35.101562 294.394531 37.386719 304.703125 33.023438 C 312.367188 29.777344 320.191406 26.4375 327.765625 22.96875 C 328.933594 22.433594 330.035156 21.9375 331.226562 21.441406 C 331.609375 21.277344 332.296875 20.914062 332.464844 20.53125 C 332.609375 20.195312 332.609375 18.789062 332.578125 18.375 C 332.441406 16.632812 331.65625 14.21875 329.574219 14.042969 C 329.5625 14.042969 329.53125 14.035156 329.5 14.035156 Z M 338.394531 27.917969 C 336.949219 29.121094 335.511719 30.3125 334.09375 31.535156 C 331.976562 33.328125 312.328125 49.363281 314.347656 49.574219 C 315.378906 49.683594 317.027344 49.628906 318.328125 49.757812 C 325.9375 50.484375 329.378906 52.171875 335.351562 56.84375 C 337.117188 58.234375 336.804688 57.757812 337.996094 55.488281 C 341.855469 48.503906 345.226562 42.300781 349.414062 35.4375 C 350.949219 32.925781 347.671875 28.601562 344.84375 27.652344 C 343.199219 27.09375 339.832031 26.667969 338.394531 27.917969 Z M 372.230469 1.386719 C 372.550781 0.96875 372.292969 1.226562 372.03125 1.417969 C 361.113281 9.503906 350.519531 17.894531 340.035156 26.550781 C 344.90625 26.238281 349.078125 27.605469 350.351562 32.839844 C 350.605469 33.894531 350.085938 34.109375 351.132812 32.421875 C 357.855469 21.570312 364.535156 11.589844 372.230469 1.386719 Z M 353.953125 29.058594 C 349.296875 36.9375 343.683594 45.761719 339.625 53.832031 C 337.140625 58.777344 338.996094 55.652344 343.300781 53.640625 C 352.332031 49.421875 354.554688 54.089844 356.167969 53.777344 C 357.023438 53.609375 358.636719 43.5 358.941406 42.164062 C 359.8125 38.351562 364.199219 27.027344 356.976562 26.703125 C 355.128906 26.621094 354.800781 27.636719 353.953125 29.058594 Z M 362.679688 15.882812 C 362.128906 16.695312 355.71875 25.902344 356.144531 26.007812 C 357.414062 26.332031 359.492188 25.191406 361.433594 28.09375 C 362.359375 29.476562 361.707031 30.648438 362.578125 27.75 C 365.230469 18.925781 368.132812 11.101562 372.09375 2.773438 C 368.792969 7.058594 365.742188 11.421875 362.679688 15.882812 Z M 0.257812 -0.40625 C 0.0898438 -0.515625 0.03125 -0.734375 0.136719 -0.910156 C 0.246094 -1.085938 0.464844 -1.140625 0.640625 -1.035156 C 18.421875 9.992188 48.523438 19.796875 68.445312 24.757812 C 78.433594 27.222656 105.519531 33.335938 114.773438 32.800781 C 145.859375 30.839844 179.621094 22.035156 204.195312 2.082031 C 207.578125 -0.667969 206.394531 -0.398438 202.269531 -0.421875 C 199.433594 -0.4375 174.070312 0.289062 173.652344 -0.566406 C 173.1875 -1.53125 178.128906 -1.085938 178.917969 -1.085938 C 242.851562 -1.132812 306.789062 -1.035156 370.726562 -1.078125 L 371.679688 -1.078125 C 372.148438 -1.078125 374.339844 -1.179688 374.613281 -0.949219 C 374.914062 -0.707031 374.410156 -0.0703125 374.253906 0.203125 C 359.363281 27.84375 353.640625 67.480469 354.265625 98.679688 C 354.585938 114.664062 356.367188 129.605469 359.203125 145.125 C 362.554688 163.472656 368.15625 182.300781 374.691406 199.753906 C 374.761719 199.945312 374.667969 200.152344 374.476562 200.226562 C 374.285156 200.296875 374.078125 200.203125 374.003906 200.011719 C 367.804688 183.460938 361.984375 164.378906 358.8125 146.980469 C 357.542969 140.042969 350.550781 129.40625 344.925781 124.867188 C 335.597656 117.332031 323.667969 117.210938 312.949219 121.574219 C 310.449219 122.589844 310.257812 125.636719 309.640625 127.96875 C 307.972656 134.234375 306.515625 140.410156 305.253906 146.765625 C 305.214844 146.964844 305.023438 147.097656 304.824219 147.058594 C 304.625 147.019531 304.496094 146.828125 304.535156 146.628906 C 305.917969 139.667969 307.476562 133.808594 309.242188 127 C 310.25 123.085938 309.84375 121.871094 305.941406 120.03125 C 295.273438 114.992188 278.777344 118.316406 268.078125 121.957031 C 254.589844 126.546875 238.4375 135.160156 226.738281 143.566406 C 220.792969 151.894531 215.265625 160.355469 210.308594 168.898438 C 210.207031 169.074219 209.980469 169.132812 209.8125 169.027344 C 209.636719 168.925781 209.574219 168.699219 209.679688 168.53125 C 214.648438 159.964844 220.195312 151.480469 226.15625 143.128906 L 226.171875 143.105469 C 230.015625 136.992188 235.304688 103.960938 236.855469 94.996094 C 237.824219 89.394531 236.472656 90.34375 232.09375 93.222656 C 229.664062 94.820312 205.746094 111.195312 205.195312 110.828125 C 204.339844 110.257812 207.105469 108.933594 207.585938 108.621094 C 215.175781 103.625 222.6875 98.777344 230.320312 93.875 C 238.03125 88.921875 234.921875 88.265625 227.378906 86.628906 C 184.210938 77.269531 141.878906 75.113281 97.925781 75.097656 C 81.625 75.089844 64.019531 73.859375 47.644531 71.886719 C 47.445312 71.867188 47.300781 71.683594 47.324219 71.484375 C 47.347656 71.285156 47.53125 71.140625 47.726562 71.164062 C 61.503906 72.820312 75.351562 73.730469 89.207031 74.441406 C 97.464844 74.859375 99.699219 73.285156 104.273438 66.082031 C 109.59375 57.5 113.015625 46.058594 111.703125 35.929688 C 111.296875 32.800781 108.355469 33.230469 105.460938 32.757812 C 92.371094 30.632812 79.707031 28.355469 66.824219 25.121094 C 47.230469 20.125 17.757812 10.4375 0.257812 -0.40625 Z M 0.257812 -0.40625 " fill-opacity="1" fill-rule="nonzero"/></g><g clip-path="url(#91dd9604d3)"><g transform="matrix(1, 0, 0, 1, 228, 15)"><g clip-path="url(#e32a94396a)"><g clip-path="url(#d96021520d)"><path fill="#a5a8a6" d="M 98.085938 57.320312 C 114.507812 57.320312 127.015625 47.695312 134.328125 29.402344 C 139.988281 15.234375 140.570312 0.707031 140.574219 0.5625 C 140.574219 0.476562 140.546875 0.40625 140.492188 0.34375 C 140.433594 0.28125 140.359375 0.246094 140.277344 0.246094 C 140.082031 0.246094 139.972656 0.347656 139.957031 0.542969 C 139.953125 0.683594 139.375 15.117188 133.75 29.1875 C 128.695312 41.828125 118.421875 56.703125 98.097656 56.703125 C 97.628906 56.703125 97.164062 56.699219 96.683594 56.679688 C 55.851562 55.328125 39.089844 1.011719 38.925781 0.464844 C 38.902344 0.382812 38.851562 0.320312 38.777344 0.28125 C 38.703125 0.242188 38.625 0.234375 38.542969 0.257812 C 38.460938 0.28125 38.398438 0.332031 38.359375 0.40625 C 38.320312 0.480469 38.3125 0.558594 38.335938 0.640625 C 38.378906 0.777344 42.585938 14.609375 51.824219 28.425781 C 60.367188 41.203125 75.085938 56.582031 96.664062 57.296875 C 97.140625 57.3125 97.617188 57.320312 98.085938 57.320312 Z M 98.085938 57.320312 " fill-opacity="1" fill-rule="nonzero"/></g><g clip-path="url(#093c40ef51)"><path fill="#a5a8a6" d="M 41.117188 116.960938 C 71.496094 116.960938 82.53125 69.261719 88.484375 43.523438 C 94.832031 16.109375 101.703125 0.832031 101.773438 0.679688 C 101.808594 0.601562 101.8125 0.523438 101.78125 0.445312 C 101.753906 0.363281 101.699219 0.304688 101.621094 0.269531 C 101.542969 0.234375 101.464844 0.234375 101.386719 0.261719 C 101.304688 0.292969 101.246094 0.347656 101.210938 0.425781 C 101.144531 0.578125 94.242188 15.914062 87.886719 43.382812 C 81.910156 69.199219 70.761719 117.277344 40.246094 116.332031 C 18.6875 115.679688 5.511719 76.71875 1.085938 0.535156 C 1.082031 0.449219 1.046875 0.378906 0.980469 0.324219 C 0.917969 0.265625 0.84375 0.242188 0.757812 0.246094 C 0.675781 0.25 0.605469 0.285156 0.546875 0.347656 C 0.492188 0.410156 0.464844 0.484375 0.46875 0.570312 C 4.921875 77.128906 18.296875 116.28125 40.230469 116.945312 C 40.527344 116.957031 40.824219 116.960938 41.117188 116.960938 Z M 41.117188 116.960938 " fill-opacity="1" fill-rule="nonzero"/></g><g clip-path="url(#4ad24648bb)"><path fill="#a5a8a6" d="M 127.742188 114.652344 C 127.828125 114.652344 127.898438 114.621094 127.957031 114.5625 C 128.019531 114.503906 128.050781 114.429688 128.050781 114.34375 L 128.050781 0.550781 C 128.050781 0.46875 128.019531 0.394531 127.957031 0.335938 C 127.898438 0.273438 127.824219 0.246094 127.742188 0.246094 C 127.65625 0.246094 127.582031 0.273438 127.523438 0.335938 C 127.464844 0.394531 127.433594 0.46875 127.433594 0.550781 L 127.433594 114.34375 C 127.433594 114.429688 127.464844 114.503906 127.523438 114.5625 C 127.582031 114.621094 127.65625 114.652344 127.742188 114.652344 Z M 127.742188 114.652344 " fill-opacity="1" fill-rule="nonzero"/></g><g clip-path="url(#77ac3e45bd)"><path fill="#a5a8a6" d="M 88.945312 212.574219 C 89.03125 212.574219 89.105469 212.546875 89.164062 212.484375 C 89.222656 212.425781 89.253906 212.351562 89.253906 212.269531 L 89.253906 0.550781 C 89.253906 0.46875 89.222656 0.394531 89.164062 0.335938 C 89.105469 0.273438 89.03125 0.246094 88.945312 0.246094 C 88.859375 0.246094 88.789062 0.273438 88.726562 0.335938 C 88.667969 0.394531 88.636719 0.46875 88.636719 0.550781 L 88.636719 212.269531 C 88.636719 212.351562 88.667969 212.425781 88.726562 212.484375 C 88.789062 212.546875 88.859375 212.574219 88.945312 212.574219 Z M 88.945312 212.574219 " fill-opacity="1" fill-rule="nonzero"/></g><g clip-path="url(#004ada0d93)"><path fill="#a5a8a6" d="M 113.347656 126.140625 L 116.078125 121.257812 C 116.164062 121.101562 116.292969 121 116.464844 120.953125 L 116.523438 120.9375 L 120.9375 119.707031 C 120.992188 118.839844 121.128906 117.988281 121.351562 117.148438 L 115.242188 112.660156 L 115.214844 112.644531 C 114.96875 112.460938 114.886719 112.222656 114.964844 111.925781 L 117.628906 101.964844 C 117.664062 101.84375 117.734375 101.75 117.839844 101.6875 C 117.949219 101.621094 118.0625 101.605469 118.1875 101.636719 C 118.308594 101.664062 118.402344 101.734375 118.46875 101.839844 C 118.535156 101.945312 118.554688 102.058594 118.527344 102.183594 L 116.425781 111.777344 L 121.894531 115.515625 C 122.046875 115.128906 122.195312 114.742188 122.390625 114.34375 C 122.632812 113.84375 122.863281 113.386719 123.089844 112.945312 L 120.792969 107.910156 L 120.765625 107.855469 C 120.695312 107.691406 120.695312 107.53125 120.773438 107.367188 L 123.425781 101.898438 C 123.476562 101.796875 123.554688 101.722656 123.664062 101.683594 C 123.773438 101.644531 123.882812 101.648438 123.988281 101.695312 C 124.09375 101.742188 124.167969 101.820312 124.210938 101.925781 C 124.253906 102.035156 124.25 102.140625 124.207031 102.25 L 122.015625 107.585938 L 123.976562 111.246094 C 126.972656 105.6875 127.742188 106.140625 127.742188 106.140625 C 127.742188 106.140625 128.484375 105.714844 131.351562 110.960938 L 133.457031 107.5625 L 131.277344 102.25 C 131.230469 102.140625 131.230469 102.035156 131.273438 101.925781 C 131.316406 101.820312 131.390625 101.742188 131.496094 101.695312 C 131.601562 101.648438 131.710938 101.644531 131.816406 101.683594 C 131.925781 101.722656 132.007812 101.796875 132.054688 101.898438 L 134.710938 107.367188 C 134.792969 107.546875 134.789062 107.722656 134.699219 107.894531 L 134.691406 107.910156 L 132.199219 112.5625 C 132.480469 113.113281 132.777344 113.695312 133.09375 114.34375 C 133.289062 114.742188 133.4375 115.128906 133.589844 115.515625 L 139.054688 111.777344 L 136.953125 102.183594 C 136.929688 102.058594 136.949219 101.945312 137.015625 101.839844 C 137.082031 101.734375 137.175781 101.664062 137.296875 101.636719 C 137.417969 101.605469 137.535156 101.621094 137.640625 101.6875 C 137.75 101.75 137.820312 101.84375 137.851562 101.964844 L 140.519531 111.925781 C 140.597656 112.222656 140.511719 112.460938 140.265625 112.644531 L 140.242188 112.660156 L 134.128906 117.148438 C 134.351562 117.988281 134.492188 118.839844 134.542969 119.707031 L 138.960938 120.9375 L 139.019531 120.953125 C 139.191406 121 139.320312 121.101562 139.40625 121.257812 L 142.136719 126.140625 C 142.191406 126.238281 142.203125 126.339844 142.175781 126.445312 C 142.148438 126.554688 142.089844 126.636719 141.996094 126.699219 C 141.902344 126.757812 141.800781 126.777344 141.691406 126.753906 C 141.582031 126.734375 141.496094 126.679688 141.429688 126.589844 L 138.347656 122.316406 L 134.535156 121.480469 C 134.441406 122.613281 134.207031 123.714844 133.828125 124.789062 L 138.699219 128.5625 L 138.722656 128.582031 C 138.957031 128.761719 139.039062 129 138.960938 129.289062 L 136.296875 139.246094 C 136.261719 139.367188 136.191406 139.460938 136.085938 139.527344 C 135.976562 139.589844 135.863281 139.605469 135.742188 139.578125 C 135.617188 139.546875 135.523438 139.480469 135.457031 139.375 C 135.390625 139.265625 135.371094 139.152344 135.398438 139.03125 L 137.5 129.425781 L 133.175781 126.351562 C 132.597656 127.550781 131.859375 128.636719 130.960938 129.617188 C 133.429688 138.699219 122.050781 138.703125 124.523438 129.617188 C 123.621094 128.636719 122.882812 127.550781 122.308594 126.351562 L 117.980469 129.425781 L 120.085938 139.03125 C 120.113281 139.152344 120.09375 139.265625 120.027344 139.375 C 119.957031 139.480469 119.863281 139.546875 119.742188 139.578125 C 119.621094 139.605469 119.503906 139.589844 119.398438 139.527344 C 119.289062 139.460938 119.21875 139.367188 119.1875 139.246094 L 116.523438 129.289062 C 116.445312 129 116.523438 128.761719 116.761719 128.582031 L 116.785156 128.5625 L 121.65625 124.789062 C 121.277344 123.714844 121.039062 122.613281 120.949219 121.480469 L 117.132812 122.316406 L 114.050781 126.589844 C 113.988281 126.679688 113.902344 126.734375 113.792969 126.753906 C 113.683594 126.777344 113.582031 126.757812 113.488281 126.699219 C 113.394531 126.636719 113.332031 126.554688 113.308594 126.445312 C 113.28125 126.339844 113.292969 126.238281 113.347656 126.140625 Z M 113.347656 126.140625 " fill-opacity="1" fill-rule="nonzero"/></g><path fill="#a5a8a6" d="M 68.761719 235.746094 C 69.429688 231.277344 69.667969 230.132812 70.140625 229.707031 C 70.488281 229.394531 76.234375 224.0625 79.328125 221.1875 C 79.339844 219.71875 79.730469 218.101562 80.324219 216.484375 C 78.171875 215.960938 71.992188 214.433594 71.3125 214.054688 C 70.488281 213.597656 69.996094 213.519531 70.578125 208.605469 C 70.878906 206.074219 72.136719 197.710938 72.546875 197.113281 C 73.050781 197.113281 71.675781 211.855469 71.953125 212.269531 C 72.210938 212.660156 78.179688 214.230469 81.160156 214.480469 C 81.460938 213.832031 81.777344 213.195312 82.113281 212.582031 C 80.34375 211.480469 76.226562 208.917969 75.46875 208.4375 C 74.496094 207.828125 75.179688 206.421875 75.179688 206.421875 C 75.179688 206.421875 75.828125 202.742188 78.027344 196.722656 C 80.226562 190.703125 81.308594 190.269531 81.453125 190.488281 C 81.597656 190.703125 79.144531 196.542969 78.566406 199.210938 C 77.992188 201.878906 76.800781 206.492188 77.160156 206.890625 C 77.453125 207.214844 81.566406 209.898438 83.089844 210.886719 C 84.585938 208.425781 86.066406 206.5625 86.5625 206.164062 C 87.753906 205.210938 88.332031 205.113281 88.945312 205.113281 C 89.558594 205.113281 90.136719 205.210938 91.328125 206.164062 C 91.824219 206.5625 93.308594 208.425781 94.804688 210.886719 C 96.324219 209.898438 100.4375 207.214844 100.730469 206.890625 C 101.089844 206.492188 99.902344 201.878906 99.324219 199.210938 C 98.746094 196.542969 96.296875 190.703125 96.441406 190.488281 C 96.585938 190.269531 97.664062 190.703125 99.863281 196.722656 C 102.0625 202.742188 102.710938 206.421875 102.710938 206.421875 C 102.710938 206.421875 103.398438 207.828125 102.425781 208.4375 C 101.664062 208.917969 97.550781 211.480469 95.78125 212.582031 C 96.113281 213.195312 96.433594 213.832031 96.734375 214.480469 C 99.710938 214.230469 105.679688 212.660156 105.9375 212.269531 C 106.214844 211.855469 104.839844 197.113281 105.34375 197.113281 C 105.757812 197.710938 107.011719 206.074219 107.3125 208.605469 C 107.898438 213.519531 107.402344 213.597656 106.582031 214.054688 C 105.902344 214.433594 99.71875 215.960938 97.570312 216.484375 C 98.164062 218.101562 98.550781 219.71875 98.5625 221.1875 C 101.65625 224.0625 107.402344 229.394531 107.75 229.707031 C 108.226562 230.132812 108.464844 231.277344 109.128906 235.746094 C 109.792969 240.21875 113.601562 246.164062 113.457031 246.402344 C 113.316406 246.640625 113.078125 247.066406 110.507812 243.546875 C 107.941406 240.027344 106.226562 230.894531 106.226562 230.894531 C 106.226562 230.894531 100.316406 226.367188 97.941406 224.707031 C 97.859375 224.96875 97.777344 225.226562 97.6875 225.472656 L 104.34375 238.265625 C 104.527344 238.613281 104.515625 238.957031 104.308594 239.289062 C 103.585938 240.453125 101.652344 243.523438 99.132812 247.15625 C 95.917969 251.804688 95.082031 251.328125 95.859375 250.019531 C 96.632812 248.707031 102.410156 238.457031 102.410156 238.457031 L 96.058594 228.707031 C 95.453125 229.65625 94.730469 230.503906 93.890625 231.25 C 95.738281 238.398438 88.945312 238.042969 88.945312 238.042969 C 88.945312 238.042969 82.152344 238.398438 84 231.25 C 83.160156 230.503906 82.4375 229.65625 81.832031 228.707031 L 75.480469 238.457031 C 75.480469 238.457031 81.257812 248.707031 82.035156 250.019531 C 82.808594 251.328125 81.976562 251.804688 78.757812 247.15625 C 76.242188 243.523438 74.308594 240.453125 73.585938 239.289062 C 73.378906 238.957031 73.363281 238.613281 73.546875 238.265625 L 80.203125 225.472656 C 80.113281 225.226562 80.03125 224.96875 79.949219 224.707031 C 77.574219 226.367188 71.664062 230.894531 71.664062 230.894531 C 71.664062 230.894531 69.953125 240.027344 67.382812 243.546875 C 64.816406 247.066406 64.578125 246.640625 64.433594 246.402344 C 64.292969 246.164062 68.097656 240.21875 68.761719 235.746094 Z M 68.761719 235.746094 " fill-opacity="1" fill-rule="nonzero"/></g></g></g></g></g></svg>